    <svg xmlns="http://www.w3.org/2000/svg" xmlnsxlink="http://www.w3.org/1999/xlink" version="1.1" id="Layer_1" x="0px" y="0px" viewBox="0 0 283.7 283.7">
      <g>
        <path fill='#009736' classname="st0" d="M183.4,100.3c-44.7,2.5-80.6,38.3-83.1,83.1C145.1,180.9,180.9,145.1,183.4,100.3z" />
        <path  fill='#00A5EA' classname="st1" d="M183.4,100.3c0.1-1.6,0.2-3.2,0.2-4.9V0h-83.5v95.5c0,2.5-2.1,4.6-4.6,4.6H0v83.5h95.5c1.6,0,3.2-0.2,4.9-0.2   C102.8,138.7,138.7,102.8,183.4,100.3z" />
        <path fill='#97BF00' classname="st2" d="M188.3,100.1c-1.6,0-3.2,0.2-4.9,0.2c-2.5,44.7-38.3,80.6-83.1,83.1c-0.1,1.6-0.2,3.2-0.2,4.9v95.5h83.5v-95.5   c0-2.5,2.1-4.6,4.6-4.6h95.5v-83.5H188.3z" />
      </g>
    </svg>   
     